<?xml version="1.0" encoding="utf-8"?>
<!-- Generator: Adobe Illustrator 24.0.1, SVG Export Plug-In . SVG Version: 6.00 Build 0)  -->
<svg version="1.1" id="Layer_1" xmlns="http://www.w3.org/2000/svg" xmlns:xlink="http://www.w3.org/1999/xlink" x="0px" y="0px"
	 viewBox="0 0 459.4 391" style="enable-background:new 0 0 459.4 391;" xml:space="preserve">
<style type="text/css">
	.st0{fill:#7E2100;}
	.st1{fill:#111111;}
</style>
<g>
	<g id="Gsu41c.tif">
		<g>
			<path class="st0" d="M297.2,158.7c-1,0.3-2,0.8-3,0.9c-4.4,0.7-8,2.8-11.3,5.6c-3.1,2.7-3,5.6,0.2,8.2c4,3.3,8.9,4.5,13.6,6.1
				c10.3,3.4,19.1-0.8,27.6-5.7c3.9-2.3,3.8-5.8,0.4-8.8c-3.3-2.9-7-4.9-11.4-5.4c-0.8-0.1-1.6-0.6-3-1c0.9-0.7,1.4-1.1,1.9-1.3
				c4.7-1.7,9.4-1.7,14.2-0.5c4.2,1.1,5,4.8,6.1,8.1c1.2,3.7-0.4,7.4-4.5,10.2c-3.9,2.6-8,4.9-12,7.3c-4,2.3-7.6,4.9-10,9
				c-1,1.7-3,2-3.9,0.6c-3.8-6.3-10.2-9.4-16.3-12.9c-1.8-1-3.6-2.1-5.3-3.2c-6.1-4.2-7.1-8.1-4-14.8c1.4-3,3.8-4.3,6.7-4.7
				c3.9-0.6,7.8-0.5,11.6,0.8c0.7,0.2,1.4,0.7,2.1,1.1C297.2,158.3,297.2,158.5,297.2,158.7z"/>
			<path class="st0" d="M339.1,187c-1.2,1.5-2.2,3.1-3.6,4.4c-9.3,9.2-18.6,18.3-28.1,27.7c-1.7-5.2-1.4-10.1,2.2-14.3
				c2.2-2.6,4.9-4.9,7.8-6.7c5.9-3.7,12-7,18-10.4c1-0.6,2.2-0.8,3.4-1.2C338.8,186.6,338.9,186.8,339.1,187z"/>
			<path class="st0" d="M304,220.4c-11.7-12-23.2-23.7-34.8-35.5c0.1-0.1,0.1-0.2,0.2-0.3c0.4,0.1,0.8,0.2,1.1,0.4
				c6.6,3.7,13.4,7.1,19.8,11.1c5.5,3.4,10,8,12.5,14.2C304.1,213.6,304.6,217,304,220.4z"/>
			<path class="st0" d="M337.6,170.7c0.5,0.9,1.3,2.1,1.9,3.4c1.4,3.4,0.8,6.2-2.3,8c-3.5,2-7.4,3.5-11.1,5.2
				c-3.3,1.5-6.8,2.7-10,4.3c-2.1,1.1-3.9,3-5.9,4.4c-0.5,0.4-1.3,0.4-2,0.6c-0.1-0.8-0.5-1.9-0.2-2.4c0.9-1.3,2-2.5,3.2-3.4
				c6.1-4.4,12.4-8.7,18.4-13.2C332.3,175.8,334.7,173.3,337.6,170.7z"/>
			<path class="st0" d="M271,170.2c1.9,3.8,5.1,5.9,8.2,8.2c6.1,4.4,12.2,8.7,18.2,13.1c1.1,0.8,2.1,2,2.8,3.2
				c0.3,0.5-0.3,1.4-0.4,2.2c-0.6-0.2-1.4-0.1-1.7-0.5c-3.5-3.9-8.2-5.9-13-7.8c-3.2-1.3-6.5-2.5-9.8-3.8c-0.6-0.2-1.1-0.5-1.7-0.8
				C267,180.6,266.1,176.3,271,170.2z"/>
			<path class="st0" d="M312.3,178.2c3-2.9,3.7-5.6,2.1-8.1c-1.7-2.7-6.3-3.8-9.6-2.2c0.8,0.3,1.5,0.5,2.1,0.9
				c1.3,0.8,1.4,1.8,0,2.5c-2.6,1.3-5.5,1.6-8.1,0.2c-0.9-0.5-1.8-1.9-1.8-2.9c0-1.1,0.7-2.6,1.7-3.2c4.5-2.7,9.4-2.5,14.2-1.1
				c2.3,0.7,4.7,1.8,6.6,3.2c3.1,2.4,2.8,5.6-0.5,7.8c-1,0.6-2,1.2-3.1,1.6C314.7,177.4,313.5,177.7,312.3,178.2z"/>
			<path class="st0" d="M299.9,161.8c-2,1.3-4.1,2.2-5.8,3.7c-2.6,2.3-2.3,5.2,0.6,7.1c3.8,2.6,8.1,2.2,12.4,1.8
				c1.4-0.1,2.8-0.5,4.8-0.9c-2.3,2.5-4.8,3.6-7.5,4c-6.2,0.9-11.8-0.6-16.2-5.2c-3.5-3.6-2.6-7.2,2-9c1.1-0.5,2.4-0.8,3.6-1
				C295.8,162.1,297.9,162,299.9,161.8z"/>
			<path class="st0" d="M298.5,155.5c4.1,0,7.7,0,11.5,0C305.6,159.7,302.8,159.7,298.5,155.5z"/>
		</g>
	</g>
	<g>
		<g>
			<path class="st1" d="M134.8,172.3h-13.7v-10.5H161v10.5h-13.7v36.9h-12.6V172.3z"/>
			<path class="st1" d="M167.8,198.7h10.8v-26.4h-10.8v-10.5H202v10.5h-10.8v26.4H202v10.5h-34.2V198.7z"/>
			<path class="st1" d="M210.6,161.8h12.8l3.9,15.5l1.3,6.1h0.3l1.3-6.1l3.9-15.5h12.8v47.4h-10.4V198c0-5.6,1-18.5,1.6-24.1h-0.2
				l-4,14.1l-2.5,8.6h-5.5l-2.6-8.6l-3.6-14.1h-0.3c0.6,5.5,1.6,18.5,1.6,24.1v11.2h-10.2V161.8z"/>
		</g>
	</g>
</g>
</svg>
